<?xml version="1.0" encoding="UTF-8"?>
<svg width="14px" height="14px" viewBox="0 0 14 14" version="1.1" xmlns="http://www.w3.org/2000/svg" xmlns:xlink="http://www.w3.org/1999/xlink">
    <!-- Generator: Sketch 47.1 (45422) - http://www.bohemiancoding.com/sketch -->
    <title>Page 1</title>
    <desc>Created with Sketch.</desc>
    <defs></defs>
    <g id="Page-1" stroke="none" stroke-width="1" fill="none" fill-rule="evenodd">
        <g id="Codepen-Recs" transform="translate(-801.000000, -271.000000)" stroke="#1752D7" fill="#1752D7">
            <g id="Page-1" transform="translate(802.000000, 272.000000)">
                <path d="M11.2782389,5.27809455 L6.72161674,5.27809455 L6.72161674,0.721761097 C6.72161674,0.323060267 6.39855648,0 5.99985565,0 C5.60115482,0 5.27809455,0.323060267 5.27809455,0.721761097 L5.27809455,5.27809455 L0.721761097,5.27809455 C0.323060267,5.27809455 0,5.60115482 0,5.99985565 C0,6.39855648 0.323060267,6.72161674 0.721761097,6.72161674 L5.27809455,6.72161674 L5.27809455,11.2782389 C5.27809455,11.6769397 5.60115482,12 5.99985565,12 C6.39855648,12 6.72161674,11.6769397 6.72161674,11.2782389 L6.72161674,6.72161674 L11.2782389,6.72161674 C11.6769397,6.72161674 12,6.39855648 12,5.99985565 C12,5.60115482 11.6769397,5.27809455 11.2782389,5.27809455" id="Fill-1"></path>
            </g>
        </g>
    </g>
</svg>